<svg width="56" height="26" viewBox="0 0 56 26" fill="none" xmlns="http://www.w3.org/2000/svg">
<path d="M32.1176 10.3106C32.1176 10.5111 32.2805 10.6736 32.4813 10.6736H33.1486C33.3495 10.6736 33.5124 10.5111 33.5124 10.3106C33.5124 10.1101 33.3495 9.94749 33.1486 9.94749H32.4813C32.2805 9.94749 32.1176 10.1101 32.1176 10.3106Z" fill="#195557"/>
<path d="M36.8812 12.2785C36.8064 12.2785 36.7331 12.2853 36.6616 12.2974L34.2641 8.32719C34.2738 8.31549 34.283 8.30327 34.2913 8.29016L35.9013 5.73787C35.9681 5.63207 35.9755 5.4994 35.9212 5.38676C35.8668 5.27412 35.7581 5.19732 35.6336 5.18352L32.9922 4.89076L33.2921 2.25522C33.3062 2.13109 33.2555 2.00842 33.1576 1.93046C33.0598 1.85255 32.9287 1.83025 32.8105 1.87156L30.3021 2.74802L29.4262 0.243448C29.3849 0.125385 29.2857 0.0368377 29.1636 0.00907325C29.0415 -0.0186058 28.9136 0.0182143 28.8251 0.106762L26.9485 1.98556L25.0719 0.106762C24.9834 0.0182143 24.8555 -0.0186913 24.7335 0.00907325C24.6113 0.0368377 24.5121 0.125428 24.4708 0.243406L23.595 2.74798L21.0865 1.87156C20.9683 1.8303 20.8372 1.85251 20.7394 1.93046C20.6416 2.00837 20.5907 2.13105 20.6048 2.25522L20.9047 4.89076L18.2634 5.18357C18.1388 5.19736 18.0302 5.27416 17.9758 5.3868C17.9214 5.49944 17.9289 5.63207 17.9957 5.73792L19.4117 7.98257L17.1614 9.39305C17.0555 9.45947 16.9912 9.57561 16.9912 9.70051C16.9912 9.82541 17.0555 9.9415 17.1614 10.008L19.4117 11.4185L17.9957 13.6631C17.9252 13.775 17.9211 13.9162 17.985 14.0319C18.0489 14.1476 18.1708 14.2195 18.3032 14.2197L35.7608 14.2393C35.9879 14.6212 36.405 14.8779 36.8813 14.8779C37.5993 14.8779 38.1834 14.2949 38.1834 13.5782C38.1833 12.8616 37.5992 12.2785 36.8812 12.2785ZM35.5808 13.513L29.095 13.5057C28.2362 10.6022 30.363 8.3441 32.844 7.38238L36.0053 12.6173C35.7587 12.8415 35.5984 13.1588 35.5808 13.513ZM20.2214 11.4978C20.2728 11.4163 20.2897 11.3176 20.2683 11.2237C20.2468 11.1297 20.1888 11.0482 20.107 10.9969L18.0389 9.70047L20.107 8.40408C20.1888 8.35282 20.2468 8.27123 20.2683 8.17726C20.2897 8.08329 20.2728 7.98466 20.2214 7.90312L18.9207 5.84124L21.3475 5.57223C21.4436 5.56159 21.5314 5.51319 21.5917 5.43785C21.652 5.36245 21.6797 5.26622 21.6688 5.17041L21.3932 2.74798L23.6982 3.55336C23.7892 3.58518 23.8893 3.5795 23.9763 3.53777C24.0633 3.49591 24.13 3.42129 24.1618 3.33039L24.9665 1.02965L26.6909 2.75614C26.7591 2.82448 26.8518 2.86288 26.9485 2.86288C27.0452 2.86288 27.1379 2.82448 27.2061 2.75614L28.9306 1.02965L29.7352 3.33039C29.767 3.42137 29.8338 3.496 29.9207 3.53781C30.0077 3.57963 30.1078 3.58527 30.1989 3.5534L32.5039 2.74802L32.2283 5.17045C32.2174 5.26626 32.2451 5.3625 32.3054 5.43789C32.3656 5.51332 32.4535 5.56163 32.5495 5.57227L34.9764 5.84124L33.8455 7.63385L33.3123 6.75085C33.2235 6.60395 33.0439 6.53916 32.8817 6.59515C31.2135 7.17172 29.8433 8.17863 29.0236 9.43046C28.2072 10.6773 27.9746 12.0768 28.3402 13.5047L18.9621 13.4942L20.2214 11.4978ZM36.8812 14.1517C36.5644 14.1517 36.3067 13.8944 36.3067 13.5782C36.3067 13.2619 36.5644 13.0047 36.8812 13.0047C37.198 13.0047 37.4558 13.2619 37.4558 13.5782C37.4558 13.8944 37.198 14.1517 36.8812 14.1517Z" fill="#195557"/>
<path d="M7.19506 25.7552C7.2155 25.7552 7.22572 25.7756 7.22572 25.8164C7.22572 25.8572 7.2155 25.8776 7.19506 25.8776C6.95659 25.8776 6.76581 25.8742 6.62273 25.8674L5.83577 25.8572L4.91595 25.8674C4.7933 25.8742 4.62637 25.8776 4.41515 25.8776C4.39471 25.8776 4.38449 25.8572 4.38449 25.8164C4.38449 25.7756 4.39471 25.7552 4.41515 25.7552C4.66725 25.7552 4.85122 25.7382 4.96705 25.7042C5.08288 25.6702 5.16123 25.6056 5.20211 25.5104C5.24299 25.4151 5.26343 25.2621 5.26343 25.0513V22.7051H1.96229V25.0513C1.96229 25.2553 1.98273 25.4083 2.02361 25.5104C2.06449 25.6056 2.14285 25.6702 2.25868 25.7042C2.37451 25.7382 2.55847 25.7552 2.81057 25.7552C2.8242 25.7552 2.83101 25.7756 2.83101 25.8164C2.83101 25.8572 2.8242 25.8776 2.81057 25.8776C2.5721 25.8776 2.38132 25.8742 2.23824 25.8674L1.34907 25.8572L0.582555 25.8674C0.446285 25.8742 0.258913 25.8776 0.0204405 25.8776C0.00681351 25.8776 0 25.8572 0 25.8164C0 25.7756 0.00681351 25.7552 0.0204405 25.7552C0.258913 25.7552 0.432658 25.7382 0.541674 25.7042C0.65069 25.6702 0.725638 25.6056 0.766519 25.5104C0.807401 25.4083 0.827841 25.2553 0.827841 25.0513V20.3283C0.827841 20.1242 0.807401 19.9746 0.766519 19.8794C0.725638 19.7842 0.65069 19.7196 0.541674 19.6856C0.439471 19.6448 0.27254 19.6244 0.040881 19.6244C0.0204405 19.6244 0.0102203 19.604 0.0102203 19.5632C0.0102203 19.5224 0.0204405 19.502 0.040881 19.502L0.592775 19.5122C0.906196 19.5258 1.1583 19.5326 1.34907 19.5326C1.60799 19.5326 1.90778 19.5258 2.24846 19.5122L2.81057 19.502C2.8242 19.502 2.83101 19.5224 2.83101 19.5632C2.83101 19.604 2.8242 19.6244 2.81057 19.6244C2.56529 19.6244 2.38473 19.6448 2.2689 19.6856C2.15307 19.7264 2.07131 19.7978 2.02361 19.8998C1.98273 19.995 1.96229 20.1446 1.96229 20.3487V22.4195H5.26343V20.3487C5.26343 20.1446 5.24299 19.995 5.20211 19.8998C5.16123 19.7978 5.08288 19.7264 4.96705 19.6856C4.85122 19.6448 4.66725 19.6244 4.41515 19.6244C4.39471 19.6244 4.38449 19.604 4.38449 19.5632C4.38449 19.5224 4.39471 19.502 4.41515 19.502L4.91595 19.5122C5.25662 19.5258 5.56323 19.5326 5.83577 19.5326C6.01973 19.5326 6.28205 19.5258 6.62273 19.5122L7.19506 19.502C7.2155 19.502 7.22572 19.5224 7.22572 19.5632C7.22572 19.604 7.2155 19.6244 7.19506 19.6244C6.9634 19.6244 6.78966 19.6448 6.67383 19.6856C6.56481 19.7196 6.48987 19.7842 6.44898 19.8794C6.41492 19.9746 6.39788 20.1242 6.39788 20.3283V25.0513C6.39788 25.2553 6.41492 25.4083 6.44898 25.5104C6.48987 25.6056 6.56481 25.6702 6.67383 25.7042C6.78285 25.7382 6.95659 25.7552 7.19506 25.7552Z" fill="#195557"/>
<path d="M12.588 24.2556C12.588 24.242 12.6016 24.2352 12.6289 24.2352C12.6493 24.2352 12.6664 24.242 12.68 24.2556C12.7004 24.2624 12.7106 24.2692 12.7106 24.276C12.6425 24.8065 12.6084 25.2893 12.6084 25.7246C12.6084 25.779 12.5982 25.8198 12.5778 25.847C12.5573 25.8674 12.5165 25.8776 12.4551 25.8776H7.93779C7.91735 25.8776 7.90713 25.8572 7.90713 25.8164C7.90713 25.7756 7.91735 25.7552 7.93779 25.7552C8.15582 25.7552 8.31253 25.7382 8.40792 25.7042C8.51012 25.6702 8.57826 25.6056 8.61233 25.5104C8.64639 25.4083 8.66343 25.2553 8.66343 25.0513V20.3283C8.66343 20.1242 8.64639 19.9746 8.61233 19.8794C8.57826 19.7842 8.51012 19.7196 8.40792 19.6856C8.30572 19.6448 8.14901 19.6244 7.93779 19.6244C7.91735 19.6244 7.90713 19.604 7.90713 19.5632C7.90713 19.5224 7.91735 19.502 7.93779 19.502H12.2712C12.3393 19.502 12.3734 19.5326 12.3734 19.5938L12.3938 20.9505C12.3938 20.9641 12.3734 20.9743 12.3325 20.9811C12.2984 20.9879 12.278 20.9811 12.2712 20.9607C12.1622 20.5663 11.9782 20.2738 11.7193 20.0834C11.4604 19.893 11.1197 19.7978 10.6973 19.7978H10.3907C10.1862 19.7978 10.0363 19.842 9.94096 19.9304C9.84557 20.0188 9.79788 20.1548 9.79788 20.3385V22.4195H10.6462C11.0413 22.4195 11.3445 22.3514 11.5558 22.2154C11.767 22.0794 11.8726 21.889 11.8726 21.6442C11.8726 21.6238 11.8896 21.6136 11.9237 21.6136C11.9646 21.6136 11.985 21.6238 11.985 21.6442L11.9748 22.5623L11.985 23.0519C11.9986 23.2831 12.0055 23.4668 12.0055 23.6028C12.0055 23.6164 11.985 23.6232 11.9441 23.6232C11.9032 23.6232 11.8828 23.6164 11.8828 23.6028C11.8828 23.3239 11.7738 23.1063 11.5558 22.9499C11.3445 22.7867 11.0379 22.7051 10.6359 22.7051H9.79788V25.0105C9.79788 25.2077 9.83535 25.3539 9.9103 25.4491C9.98525 25.5444 10.1045 25.592 10.268 25.592H10.6053C11.1367 25.592 11.5626 25.4832 11.8828 25.2655C12.203 25.0479 12.4381 24.7113 12.588 24.2556Z" fill="#195557"/>
<path d="M16.4897 25.9184C16.2716 25.9184 16.0127 25.9082 15.7129 25.8878C15.6039 25.881 15.4676 25.8742 15.3041 25.8674C15.1474 25.8606 14.9703 25.8572 14.7727 25.8572L14.0164 25.8674C13.8801 25.8742 13.6961 25.8776 13.4645 25.8776C13.4508 25.8776 13.444 25.8572 13.444 25.8164C13.444 25.7756 13.4508 25.7552 13.4645 25.7552C13.6825 25.7552 13.8426 25.7382 13.9448 25.7042C14.047 25.6702 14.1152 25.6056 14.1492 25.5104C14.1901 25.4083 14.2106 25.2553 14.2106 25.0513V20.3283C14.2106 20.1242 14.1901 19.9746 14.1492 19.8794C14.1152 19.7842 14.047 19.7196 13.9448 19.6856C13.8494 19.6448 13.6961 19.6244 13.4849 19.6244C13.4645 19.6244 13.4543 19.604 13.4543 19.5632C13.4543 19.5224 13.4645 19.502 13.4849 19.502L14.0266 19.5122C14.34 19.5258 14.5887 19.5326 14.7727 19.5326C15.052 19.5326 15.3382 19.5224 15.6312 19.502C15.9855 19.4884 16.2239 19.4816 16.3466 19.4816C17.0348 19.4816 17.6446 19.6176 18.176 19.8896C18.7143 20.1616 19.1299 20.5323 19.4229 21.0015C19.7159 21.4708 19.8624 21.9978 19.8624 22.5827C19.8624 23.2423 19.7091 23.8272 19.4024 24.3372C19.1026 24.8405 18.6938 25.2315 18.176 25.5104C17.665 25.7824 17.1029 25.9184 16.4897 25.9184ZM16.3875 25.6838C16.8235 25.6838 17.2085 25.575 17.5424 25.3573C17.8762 25.1329 18.1351 24.8031 18.3191 24.3678C18.5099 23.9326 18.6053 23.4123 18.6053 22.8071C18.6053 22.229 18.5167 21.7054 18.3395 21.2361C18.1624 20.7601 17.9103 20.3861 17.5832 20.114C17.2562 19.842 16.878 19.706 16.4488 19.706C16.0264 19.706 15.7368 19.7468 15.5801 19.8284C15.4234 19.91 15.345 20.0834 15.345 20.3487V24.9391C15.345 25.2111 15.4165 25.4049 15.5596 25.5206C15.7027 25.6294 15.9787 25.6838 16.3875 25.6838Z" fill="#195557"/>
<path d="M24.544 26C23.7945 26 23.1405 25.8572 22.5817 25.5716C22.023 25.2859 21.5972 24.8983 21.3042 24.4086C21.0112 23.9122 20.8647 23.3613 20.8647 22.7561C20.8647 22.1032 21.0317 21.5218 21.3655 21.0117C21.7062 20.4949 22.1695 20.097 22.7555 19.8182C23.3483 19.5326 24.0092 19.3898 24.7382 19.3898C25.0585 19.3898 25.3821 19.417 25.7091 19.4714C26.0362 19.519 26.2985 19.5836 26.4961 19.6652C26.5574 19.6856 26.5949 19.7128 26.6085 19.7468C26.629 19.774 26.6426 19.825 26.6494 19.8998L26.7823 21.3177C26.7823 21.3382 26.7652 21.3518 26.7312 21.3586C26.6971 21.3654 26.6733 21.3552 26.6596 21.3279C26.4212 20.8043 26.0907 20.3963 25.6683 20.1038C25.2526 19.8114 24.7757 19.6652 24.2374 19.6652C23.5424 19.6652 23.011 19.9066 22.6431 20.3895C22.2819 20.8723 22.1014 21.532 22.1014 22.3684C22.1014 23.0417 22.2172 23.6436 22.4489 24.174C22.6805 24.6977 23.0008 25.1057 23.4096 25.3981C23.8252 25.6838 24.2885 25.8266 24.7995 25.8266C25.0789 25.8266 25.2935 25.796 25.4434 25.7348C25.5933 25.6736 25.7023 25.5546 25.7705 25.3777C25.8386 25.2009 25.8727 24.9391 25.8727 24.5923C25.8727 24.2386 25.8522 23.9938 25.8113 23.8578C25.7705 23.715 25.6819 23.6198 25.5456 23.5722C25.4162 23.5246 25.1879 23.5008 24.8609 23.5008C24.82 23.5008 24.7995 23.4736 24.7995 23.4191C24.7995 23.3987 24.8029 23.3817 24.8098 23.3681C24.8234 23.3477 24.837 23.3375 24.8506 23.3375C25.4298 23.3715 25.8965 23.3885 26.2508 23.3885C26.5983 23.3885 26.9594 23.3783 27.3342 23.3579C27.3478 23.3579 27.358 23.3681 27.3648 23.3885C27.3785 23.4021 27.3853 23.4158 27.3853 23.4294C27.3853 23.477 27.3682 23.5008 27.3342 23.5008C27.2115 23.494 27.1264 23.5178 27.0787 23.5722C27.031 23.6198 27.0003 23.7218 26.9867 23.8782C26.973 24.0278 26.9662 24.2998 26.9662 24.6943C26.9662 25.0003 26.9765 25.2179 26.9969 25.3471C27.0242 25.4763 27.0378 25.558 27.0378 25.592C27.0378 25.6328 27.0276 25.66 27.0071 25.6736C26.9935 25.6872 26.9628 25.7008 26.9151 25.7144C26.0362 25.9048 25.2458 26 24.544 26Z" fill="#195557"/>
<path d="M32.779 24.2556C32.779 24.242 32.7926 24.2352 32.8199 24.2352C32.8403 24.2352 32.8574 24.242 32.871 24.2556C32.8914 24.2624 32.9016 24.2692 32.9016 24.276C32.8335 24.8065 32.7994 25.2893 32.7994 25.7246C32.7994 25.779 32.7892 25.8198 32.7688 25.847C32.7483 25.8674 32.7075 25.8776 32.6461 25.8776H28.1288C28.1083 25.8776 28.0981 25.8572 28.0981 25.8164C28.0981 25.7756 28.1083 25.7552 28.1288 25.7552C28.3468 25.7552 28.5035 25.7382 28.5989 25.7042C28.7011 25.6702 28.7693 25.6056 28.8033 25.5104C28.8374 25.4083 28.8544 25.2553 28.8544 25.0513V20.3283C28.8544 20.1242 28.8374 19.9746 28.8033 19.8794C28.7693 19.7842 28.7011 19.7196 28.5989 19.6856C28.4967 19.6448 28.34 19.6244 28.1288 19.6244C28.1083 19.6244 28.0981 19.604 28.0981 19.5632C28.0981 19.5224 28.1083 19.502 28.1288 19.502H32.4622C32.5303 19.502 32.5644 19.5326 32.5644 19.5938L32.5848 20.9505C32.5848 20.9641 32.5644 20.9743 32.5235 20.9811C32.4894 20.9879 32.469 20.9811 32.4622 20.9607C32.3532 20.5663 32.1692 20.2738 31.9103 20.0834C31.6514 19.893 31.3107 19.7978 30.8883 19.7978H30.5817C30.3772 19.7978 30.2274 19.842 30.132 19.9304C30.0366 20.0188 29.9889 20.1548 29.9889 20.3385V22.4195H30.8372C31.2323 22.4195 31.5355 22.3514 31.7468 22.2154C31.958 22.0794 32.0636 21.889 32.0636 21.6442C32.0636 21.6238 32.0806 21.6136 32.1147 21.6136C32.1556 21.6136 32.176 21.6238 32.176 21.6442L32.1658 22.5623L32.176 23.0519C32.1896 23.2831 32.1965 23.4668 32.1965 23.6028C32.1965 23.6164 32.176 23.6232 32.1351 23.6232C32.0942 23.6232 32.0738 23.6164 32.0738 23.6028C32.0738 23.3239 31.9648 23.1063 31.7468 22.9499C31.5355 22.7867 31.2289 22.7051 30.8269 22.7051H29.9889V25.0105C29.9889 25.2077 30.0264 25.3539 30.1013 25.4491C30.1762 25.5444 30.2955 25.592 30.459 25.592H30.7963C31.3277 25.592 31.7536 25.4832 32.0738 25.2655C32.394 25.0479 32.6291 24.7113 32.779 24.2556Z" fill="#195557"/>
<path d="M40.8301 25.7552C40.8505 25.7552 40.8608 25.7756 40.8608 25.8164C40.8608 25.8572 40.8505 25.8776 40.8301 25.8776C40.5916 25.8776 40.4008 25.8742 40.2578 25.8674L39.4708 25.8572L38.551 25.8674C38.4283 25.8742 38.2614 25.8776 38.0502 25.8776C38.0297 25.8776 38.0195 25.8572 38.0195 25.8164C38.0195 25.7756 38.0297 25.7552 38.0502 25.7552C38.3023 25.7552 38.4863 25.7382 38.6021 25.7042C38.7179 25.6702 38.7963 25.6056 38.8371 25.5104C38.878 25.4151 38.8985 25.2621 38.8985 25.0513V22.7051H35.5973V25.0513C35.5973 25.2553 35.6178 25.4083 35.6586 25.5104C35.6995 25.6056 35.7779 25.6702 35.8937 25.7042C36.0095 25.7382 36.1935 25.7552 36.4456 25.7552C36.4592 25.7552 36.466 25.7756 36.466 25.8164C36.466 25.8572 36.4592 25.8776 36.4456 25.8776C36.2071 25.8776 36.0164 25.8742 35.8733 25.8674L34.9841 25.8572L34.2176 25.8674C34.0813 25.8742 33.8939 25.8776 33.6555 25.8776C33.6418 25.8776 33.635 25.8572 33.635 25.8164C33.635 25.7756 33.6418 25.7552 33.6555 25.7552C33.8939 25.7552 34.0677 25.7382 34.1767 25.7042C34.2857 25.6702 34.3607 25.6056 34.4016 25.5104C34.4424 25.4083 34.4629 25.2553 34.4629 25.0513V20.3283C34.4629 20.1242 34.4424 19.9746 34.4016 19.8794C34.3607 19.7842 34.2857 19.7196 34.1767 19.6856C34.0745 19.6448 33.9076 19.6244 33.6759 19.6244C33.6555 19.6244 33.6453 19.604 33.6453 19.5632C33.6453 19.5224 33.6555 19.502 33.6759 19.502L34.2278 19.5122C34.5412 19.5258 34.7933 19.5326 34.9841 19.5326C35.243 19.5326 35.5428 19.5258 35.8835 19.5122L36.4456 19.502C36.4592 19.502 36.466 19.5224 36.466 19.5632C36.466 19.604 36.4592 19.6244 36.4456 19.6244C36.2003 19.6244 36.0198 19.6448 35.9039 19.6856C35.7881 19.7264 35.7063 19.7978 35.6586 19.8998C35.6178 19.995 35.5973 20.1446 35.5973 20.3487V22.4195H38.8985V20.3487C38.8985 20.1446 38.878 19.995 38.8371 19.8998C38.7963 19.7978 38.7179 19.7264 38.6021 19.6856C38.4863 19.6448 38.3023 19.6244 38.0502 19.6244C38.0297 19.6244 38.0195 19.604 38.0195 19.5632C38.0195 19.5224 38.0297 19.502 38.0502 19.502L38.551 19.5122C38.8917 19.5258 39.1983 19.5326 39.4708 19.5326C39.6548 19.5326 39.9171 19.5258 40.2578 19.5122L40.8301 19.502C40.8505 19.502 40.8608 19.5224 40.8608 19.5632C40.8608 19.604 40.8505 19.6244 40.8301 19.6244C40.5984 19.6244 40.4247 19.6448 40.3089 19.6856C40.1998 19.7196 40.1249 19.7842 40.084 19.8794C40.05 19.9746 40.0329 20.1242 40.0329 20.3283V25.0513C40.0329 25.2553 40.05 25.4083 40.084 25.5104C40.1249 25.6056 40.1998 25.6702 40.3089 25.7042C40.4179 25.7382 40.5916 25.7552 40.8301 25.7552Z" fill="#195557"/>
<path d="M44.8944 26C44.2607 26 43.6952 25.8538 43.1978 25.5614C42.7073 25.2621 42.3257 24.8609 42.0532 24.3576C41.7874 23.8476 41.6546 23.2933 41.6546 22.6949C41.6546 21.9944 41.8317 21.396 42.186 20.8995C42.5403 20.3963 42.9934 20.0188 43.5453 19.7672C44.104 19.5156 44.673 19.3898 45.2521 19.3898C45.8994 19.3898 46.4683 19.5428 46.9589 19.8488C47.4495 20.148 47.8242 20.5459 48.0831 21.0423C48.3489 21.5388 48.4817 22.0658 48.4817 22.6235C48.4817 23.2423 48.3182 23.8102 47.9911 24.327C47.6641 24.8439 47.2246 25.2519 46.6727 25.5512C46.1277 25.8504 45.5349 26 44.8944 26ZM45.2317 25.745C45.6132 25.745 45.9539 25.6362 46.2537 25.4185C46.5603 25.1941 46.7988 24.8711 46.9691 24.4494C47.1395 24.021 47.2246 23.511 47.2246 22.9193C47.2246 22.2936 47.1292 21.736 46.9385 21.2463C46.7477 20.7499 46.4717 20.3623 46.1106 20.0834C45.7495 19.8046 45.3271 19.6652 44.8433 19.6652C44.2233 19.6652 43.7463 19.8998 43.4125 20.3691C43.0786 20.8315 42.9117 21.481 42.9117 22.3174C42.9117 22.9771 43.0105 23.5688 43.2081 24.0924C43.4125 24.6093 43.6884 25.0139 44.0359 25.3063C44.3902 25.5988 44.7888 25.745 45.2317 25.745Z" fill="#195557"/>
<path d="M53.1588 26C52.4093 26 51.7552 25.8572 51.1965 25.5716C50.6378 25.2859 50.2119 24.8983 49.9189 24.4086C49.626 23.9122 49.4795 23.3613 49.4795 22.7561C49.4795 22.1032 49.6464 21.5218 49.9803 21.0117C50.3209 20.4949 50.7843 20.097 51.3702 19.8182C51.963 19.5326 52.6239 19.3898 53.353 19.3898C53.6732 19.3898 53.9968 19.417 54.3239 19.4714C54.6509 19.519 54.9132 19.5836 55.1108 19.6652C55.1722 19.6856 55.2096 19.7128 55.2233 19.7468C55.2437 19.774 55.2573 19.825 55.2641 19.8998L55.397 21.3177C55.397 21.3382 55.38 21.3518 55.3459 21.3586C55.3118 21.3654 55.288 21.3552 55.2744 21.3279C55.0359 20.8043 54.7054 20.3963 54.283 20.1038C53.8674 19.8114 53.3904 19.6652 52.8522 19.6652C52.1572 19.6652 51.6257 19.9066 51.2578 20.3895C50.8967 20.8723 50.7161 21.532 50.7161 22.3684C50.7161 23.0417 50.832 23.6436 51.0636 24.174C51.2953 24.6977 51.6155 25.1057 52.0243 25.3981C52.4399 25.6838 52.9033 25.8266 53.4143 25.8266C53.6936 25.8266 53.9083 25.796 54.0582 25.7348C54.208 25.6736 54.3171 25.5546 54.3852 25.3777C54.4533 25.2009 54.4874 24.9391 54.4874 24.5923C54.4874 24.2386 54.467 23.9938 54.4261 23.8578C54.3852 23.715 54.2966 23.6198 54.1604 23.5722C54.0309 23.5246 53.8026 23.5008 53.4756 23.5008C53.4347 23.5008 53.4143 23.4736 53.4143 23.4191C53.4143 23.3987 53.4177 23.3817 53.4245 23.3681C53.4381 23.3477 53.4517 23.3375 53.4654 23.3375C54.0445 23.3715 54.5112 23.3885 54.8655 23.3885C55.213 23.3885 55.5742 23.3783 55.9489 23.3579C55.9625 23.3579 55.9727 23.3681 55.9796 23.3885C55.9932 23.4021 56 23.4158 56 23.4294C56 23.477 55.983 23.5008 55.9489 23.5008C55.8263 23.494 55.7411 23.5178 55.6934 23.5722C55.6457 23.6198 55.615 23.7218 55.6014 23.8782C55.5878 24.0278 55.581 24.2998 55.581 24.6943C55.581 25.0003 55.5912 25.2179 55.6116 25.3471C55.6389 25.4763 55.6525 25.558 55.6525 25.592C55.6525 25.6328 55.6423 25.66 55.6218 25.6736C55.6082 25.6872 55.5776 25.7008 55.5299 25.7144C54.6509 25.9048 53.8606 26 53.1588 26Z" fill="#195557"/>
<path d="M39.9998 8.34547H54.5316V8.94982H39.9998V8.34547Z" fill="#195557"/>
<path d="M0.642963 8.34547H14.5692V8.94982H0.642963V8.34547Z" fill="#195557"/>
</svg>
